<?xml version="1.0" standalone="no"?>
<!DOCTYPE svg PUBLIC "-//W3C//DTD SVG 20010904//EN"
 "http://www.w3.org/TR/2001/REC-SVG-20010904/DTD/svg10.dtd">
<svg version="1.0" xmlns="http://www.w3.org/2000/svg"
 width="163.000000pt" height="163.000000pt" viewBox="0 0 163.000000 163.000000"
 preserveAspectRatio="xMidYMid meet">
<metadata>
Created by potrace 1.11, written by Peter Selinger 2001-2013
</metadata>
<g transform="translate(0.000000,163.000000) scale(0.100000,-0.100000)"
fill="#000000" stroke="none">
<path d="M775 1611 c-6 -5 -42 -26 -81 -47 -39 -22 -168 -93 -287 -159 l-217
-120 3 -564 2 -565 120 -72 c66 -41 123 -73 128 -74 4 0 7 121 7 269 l0 269
288 168 c158 93 377 221 487 285 l200 117 3 79 2 78 -61 36 -61 37 -86 -53
c-170 -103 -764 -455 -768 -455 -2 0 -4 63 -4 140 l0 140 130 77 c71 43 138
83 148 88 9 6 88 52 175 104 139 84 176 111 149 111 -4 0 -59 27 -121 60 -113
60 -138 68 -156 51z"/>
<path d="M1295 763 c-71 -41 -152 -87 -180 -102 -27 -15 -107 -60 -176 -99
-70 -40 -129 -72 -133 -72 -3 0 -28 14 -56 30 l-51 30 -70 -37 -69 -38 2 -69
3 -69 60 -36 c33 -20 90 -54 128 -74 l67 -38 143 87 c78 48 160 98 182 110
l40 23 -2 -203 -1 -203 124 69 124 70 0 349 c0 192 -1 349 -2 348 -2 0 -61
-35 -133 -76z"/>
</g>
</svg>
