<?xml version="1.0" encoding="utf-8"?>
<!-- Generator: Adobe Illustrator 24.0.0, SVG Export Plug-In . SVG Version: 6.00 Build 0)  -->
<svg version="1.1" id="Calque_1" xmlns="http://www.w3.org/2000/svg" xmlns:xlink="http://www.w3.org/1999/xlink" x="0px" y="0px"
	 viewBox="0 0 400 400" style="enable-background:new 0 0 400 400;" xml:space="preserve">
<style type="text/css">
	.st0{fill:#ECB751;}
	.st1{fill:#FDEFB4;}
	.st2{fill:#FAD461;}
	.st3{fill:url(#SVGID_1_);}
</style>
<g transform="translate(370 -322)">
	<circle class="st0" cx="-170" cy="522" r="178.56"/>
	<path class="st1" d="M-170,343.44c-98.62,0-178.56,79.94-178.56,178.56l0,0c0.03,15.39,2.06,30.7,6.02,45.57l218.01-218.01
		C-139.36,345.57-154.64,343.52-170,343.44z M-108.78,354.5l-228.78,228.78c2.74,7.52,5.97,14.84,9.69,21.93l241.07-241.07
		C-93.9,360.43-101.24,357.21-108.78,354.5z M-1.63,463.18l-227.2,227.2c6.37,2.25,12.87,4.13,19.46,5.64L3.95,482.69
		C2.47,476.09,0.6,469.57-1.63,463.18z"/>
	<circle class="st2" cx="-170" cy="522" r="141.36"/>
	<path class="st0" d="M-115.99,391.42c37.03,26.51,59.02,69.25,59.07,114.8c0,78.07-63.29,141.36-141.36,141.36
		c-18.53-0.02-36.88-3.68-54-10.78c23.98,17.23,52.75,26.52,82.28,26.56c78.07,0,141.36-63.29,141.36-141.36
		C-28.66,464.81-63.14,413.27-115.99,391.42z"/>
	<linearGradient id="SVGID_1_" gradientUnits="userSpaceOnUse" x1="-356" y1="522" x2="16" y2="522">
		<stop  offset="0" style="stop-color:#182C3A"/>
		<stop  offset="1" style="stop-color:#213364"/>
	</linearGradient>
	<path class="st3" d="M-170,336c-102.64,0-186,83.36-186,186s83.36,186,186,186S16,624.64,16,522S-67.36,336-170,336z M-170,350.88
		C-75.4,350.88,1.12,427.4,1.12,522S-75.4,693.12-170,693.12S-341.12,616.6-341.12,522S-264.6,350.88-170,350.88z M-170,373.2
		c-82.09,0-148.8,66.71-148.8,148.8c0,33.32,10.98,64.16,29.51,88.97c2.46,3.29,7.12,3.97,10.42,1.51
		c3.29-2.46,3.97-7.12,1.51-10.42c-16.69-22.34-26.56-50.01-26.56-80.07c0-74.05,59.87-133.92,133.92-133.92
		S-36.08,447.95-36.08,522S-95.95,655.92-170,655.92c-21.6,0-41.95-5.09-60-14.15c-3.67-1.85-8.14-0.38-9.99,3.29
		c-1.85,3.67-0.38,8.14,3.29,9.99c0.01,0,0.01,0.01,0.02,0.01c20.06,10.07,42.74,15.74,66.68,15.74c82.09,0,148.8-66.71,148.8-148.8
		S-87.91,373.2-170,373.2z M-262.83,620.96c-4.11-0.13-7.54,3.09-7.68,7.2c-0.07,2.27,0.89,4.44,2.62,5.91
		c1.91,1.67,3.86,3.3,5.86,4.87c3.18,2.61,7.86,2.15,10.47-1.03c2.61-3.18,2.15-7.86-1.03-10.47c-0.08-0.06-0.15-0.12-0.23-0.18
		c-1.8-1.42-3.55-2.88-5.27-4.39C-259.39,621.69-261.07,621.01-262.83,620.96z M-102.95,473.22v16.01l-106.01,62.13V610
		l-27.87-16.66V472.26l66.29-37.15l28.19,14.73l-66.62,39.71v31.07l93.04-55.38L-102.95,473.22z M-196.79,573.79V559.7l14.41-8.33
		l12.17,6.73l67.26-37.79v74.96L-129.53,610v-43.9l-39.39,24.02L-196.79,573.79z"/>
</g>
</svg>
