<?xml version="1.0" encoding="utf-8"?><svg xmlns="http://www.w3.org/2000/svg" viewBox="0 0 193.4 172.1"><linearGradient id="a" gradientUnits="userSpaceOnUse" x1="3.721" y1="86.907" x2="189.834" y2="86.907"><stop offset="0" stop-color="#182c3a"/><stop offset="1" stop-color="#213364"/></linearGradient><path d="M138.9 5.1H54.7c-3.2 0-6.1 1.7-7.7 4.4l-42.1 73c-1.6 2.7-1.6 6.1 0 8.9L47 164.3c1.6 2.7 4.5 4.4 7.7 4.4h84.2c3.2 0 6.1-1.7 7.7-4.4l42.1-72.9c1.6-2.7 1.6-6.1 0-8.9L146.5 9.6c-1.5-2.8-4.5-4.5-7.6-4.5z" fill="url(#a)"/><path fill="#fff" d="M96.8 85.1l33.3-14.9V53.8L96.8 68.7 63.4 53.8V91.5l33.4 14.9 19.6-8.7v5.2l-19.6 8.8-33.4-14.9v16.5l33.4 14.8 33.3-14.8V75.1L96.8 90l-19.6-8.8v-4.8z"/></svg>