<svg xmlns="http://www.w3.org/2000/svg" viewBox="0 0 481.79 161.79"><defs><style>.cls-1{fill:#fff;}</style></defs><title>logo_fm_white</title><g id="Calque_2" data-name="Calque 2"><g id="Calque_1-2" data-name="Calque 1"><polygon class="cls-1" points="123.85 35.26 123.85 50.07 25.78 107.55 25.78 161.79 0 146.38 0 34.37 61.33 0 87.41 13.63 25.78 50.37 25.78 79.11 111.86 27.88 123.85 35.26"/><polygon class="cls-1" points="37.04 128.29 37.04 115.26 50.37 107.55 61.63 113.78 123.85 78.81 123.85 148.16 99.26 161.79 99.26 121.18 62.81 143.41 37.04 128.29"/><path class="cls-1" d="M181.74,47.5v28H168.09V19.39l9-9h22.11V22.77H181.74V35.34h16.12V47.5Z"/><path class="cls-1" d="M204.89,75.52V10.38h13.65v52.8h19.1V75.52Z"/><path class="cls-1" d="M243.49,10.38h31.63V22.77H257V35.34h17.21V47.5h-17V63.18h18.38V75.52H243.49Z"/><path class="cls-1" d="M280.57,10.38h31.62V22.77H294.08V35.34h17.21V47.5h-17V63.18h18.38V75.52H280.57Z"/><path class="cls-1" d="M356.43,22.77h-12.3V75.52H330.39V22.77H317.64V10.38h38.79Z"/><path class="cls-1" d="M201.87,86.27h15.77v65.14H205V110.87l-10.13,40.54h-4.06L180.7,110.87v40.54H168.09V86.27h15.76l9,32.44Z"/><path class="cls-1" d="M238,151.41H224.35V96.59l10.5-10.32h28.46v65.14H249.67V130H238Zm11.63-33.79v-19H238v19Z"/><path class="cls-1" d="M296.15,123.66V86.27H309v65.14H295.52L282.19,114v37.39H269.4V86.27h13.51Z"/><path class="cls-1" d="M329.13,151.41h-13.7V96.59l10.5-10.32H354.4v65.14H340.75V130H329.13Zm11.62-33.79v-19H329.13v19Z"/><path class="cls-1" d="M385.89,139.07V129h-5.54V117.44h19v34H360.48V86.27h36.67V98.66h-23v40.41Z"/><path class="cls-1" d="M405.66,86.27h31.63V98.66H419.18v12.57h17.21v12.16h-17v15.68h18.38v12.34H405.66Z"/><path class="cls-1" d="M468.1,151.41,460,127.85h-3.6v23.56H442.74V95.46l9.91-9.19h27.88v41.4h-7.39l8.65,23.74Zm-1.22-35.77v-17H456.39v17Z"/></g></g></svg>